# xmcd
#
# Track frame offsets: 
#        150
#        15773
#        33917
#        52671
#        68627
#        84643
#        102017
#        117849
#        134755
#        151952
#        167044
#        182262
#        201592
#        219103
#
# Disc length: 3127 seconds
#
# Revision: 0
# Processed by: cddbd v1.5.2PL0 Copyright (c) Steve Scherf et al.
# Submitted via: ExactAudioCopyFreeDBPlugin 1.0
#
DISCID=a80c350e
DTITLE=Jordin Sparks - Battlefield
DYEAR=2009
DGENRE=Black
TTITLE0=Walking On Snow
TTITLE1=Battlefield
TTITLE2=Don't Let It Go To Your Head
TTITLE3=S.O.S. [Let The Music Play]
TTITLE4=It Takes More
TTITLE5=Watch You Go
TTITLE6=No Parade
TTITLE7=Let It Rain
TTITLE8=Emergency [911]
TTITLE9=Was I The Only One
TTITLE10=Faith
TTITLE11=The Cure
TTITLE12=Tattoo
TTITLE13=One Step At A Time
EXTD=
EXTT0=
EXTT1=
EXTT2=
EXTT3=
EXTT4=
EXTT5=
EXTT6=
EXTT7=
EXTT8=
EXTT9=
EXTT10=
EXTT11=
EXTT12=
EXTT13=
PLAYORDER=
